<svg xmlns="http://www.w3.org/2000/svg" width="800" height="520" viewBox="0 0 800 520"><rect width="800" height="520" rx="28" fill="#fbf5ec"/><style>text{font-family:'PingFang TC','Microsoft JhengHei',sans-serif;font-weight:600}</style><circle cx="760" cy="52" r="65" fill="#f7e3d0" opacity=".55"/><circle cx="47" cy="461" r="79" fill="#e6f1e6" opacity=".75"/><text x="40" y="61" font-size="31" fill="#2e231c" text-anchor="start">讓客戶勾選，決定這一階段先做什麼</text><rect x="49" y="137" width="292" height="269" rx="18" fill="#fffdf8" stroke="#ead8c4" stroke-width="3"/><rect x="70" y="168" width="245" height="58" rx="10" fill="#e6f1e6" stroke="#ead8c4" stroke-width="3"/><path d="M82 190l12 12 25-29" fill="none" stroke="#2f6646" stroke-width="6" stroke-linecap="round" stroke-linejoin="round"/><text x="135" y="206" font-size="23" fill="#2e231c" text-anchor="start">項目 A</text><rect x="70" y="244" width="245" height="58" rx="10" fill="#fffdf8" stroke="#ead8c4" stroke-width="3"/><rect x="83" y="257" width="29" height="29" rx="5" fill="#fffdf8" stroke="#ead8c4" stroke-width="3"/><text x="135" y="282" font-size="23" fill="#2e231c" text-anchor="start">項目 B</text><rect x="70" y="320" width="245" height="58" rx="10" fill="#e6f1e6" stroke="#ead8c4" stroke-width="3"/><path d="M82 342l12 12 25-29" fill="none" stroke="#2f6646" stroke-width="6" stroke-linecap="round" stroke-linejoin="round"/><text x="135" y="358" font-size="23" fill="#2e231c" text-anchor="start">項目 C</text><path d="M372 273L429 273" fill="none" stroke="#b4501f" stroke-width="5" stroke-linecap="round"/><path d="M415 262l14 11-14 11" fill="none" stroke="#b4501f" stroke-width="5" stroke-linecap="round" stroke-linejoin="round"/><rect x="464" y="137" width="289" height="127" rx="18" fill="#f7e3d0" stroke="#ead8c4" stroke-width="3"/><text x="489" y="181" font-size="24" fill="#b4501f" text-anchor="start">總價</text><text x="489" y="226" font-size="27" fill="#2e231c" text-anchor="start">依選擇加總</text><rect x="464" y="282" width="289" height="124" rx="18" fill="#fffdf8" stroke="#ead8c4" stroke-width="3"/><text x="489" y="317" font-size="22" fill="#65564b" text-anchor="start">工期安排</text><rect x="489" y="335" width="140" height="12" rx="4" fill="#f7e3d0" stroke="#ead8c4" stroke-width="3"/><rect x="536" y="353" width="120" height="12" rx="4" fill="#e6f1e6" stroke="#ead8c4" stroke-width="3"/><rect x="583" y="371" width="100" height="12" rx="4" fill="#ead8c4" stroke="#ead8c4" stroke-width="3"/><text x="400" y="478" font-size="22" fill="#65564b" text-anchor="middle">項目、費用、工期，放在同一張選單</text></svg>